<svg xmlns="http://www.w3.org/2000/svg" width="20.306" height="20.304" viewBox="0 0 20.306 20.304">
<g id="file-earmark-check" transform="translate(-4.5 -2.25)">
<path id="Path_8681" data-name="Path 8681" d="M13.719,2.25H7.134A2.777,2.777,0,0,0,4.5,5.151v14.5a2.777,2.777,0,0,0,2.634,2.9h6.585V21.1H7.134a1.388,1.388,0,0,1-1.317-1.45V5.151A1.388,1.388,0,0,1,7.134,3.7h6.585V7.326A2.083,2.083,0,0,0,15.694,9.5h3.292v2.9H20.3V9.5Z" transform="translate(0)"/>
<path id="Path_8682" data-name="Path 8682" d="M35.671,22.829a1.125,1.125,0,0,1,0,1.593l-6.75,6.75a1.125,1.125,0,0,1-1.593,0L23.953,27.8A1.126,1.126,0,1,1,25.546,26.2l2.579,2.581,5.954-5.956a1.125,1.125,0,0,1,1.593,0Z" transform="translate(-11.196 -11.196)" fill-rule="evenodd"/>
</g>
</svg>