<svg xmlns="http://www.w3.org/2000/svg" width="17.953" height="17.953" viewBox="0 0 17.953 17.953">
  <path id="Icon_ionic-ios-close-circle" data-name="Icon ionic-ios-close-circle" d="M12.352,3.375a8.977,8.977,0,1,0,8.977,8.977A8.975,8.975,0,0,0,12.352,3.375ZM14.626,15.6l-2.274-2.274L10.077,15.6a.69.69,0,1,1-.975-.975l2.274-2.274L9.1,10.077a.69.69,0,0,1,.975-.975l2.274,2.274L14.626,9.1a.69.69,0,1,1,.975.975l-2.274,2.274L15.6,14.626a.693.693,0,0,1,0,.975A.685.685,0,0,1,14.626,15.6Z" transform="translate(-3.375 -3.375)" fill="#bababa"/>
</svg>
