<svg id="clipboard-check" xmlns="http://www.w3.org/2000/svg" width="18.66" height="21.326" viewBox="0 0 18.66 21.326">
<path id="Path_8691" data-name="Path 8691" d="M6.249,3.375H4.916A2.666,2.666,0,0,0,2.25,6.041v14A2.666,2.666,0,0,0,4.916,22.7H18.244a2.666,2.666,0,0,0,2.666-2.666v-14a2.666,2.666,0,0,0-2.666-2.666H16.912V4.708h1.333a1.333,1.333,0,0,1,1.333,1.333v14a1.333,1.333,0,0,1-1.333,1.333H4.916a1.333,1.333,0,0,1-1.333-1.333v-14A1.333,1.333,0,0,1,4.916,4.708H6.249Z" transform="translate(-2.25 -1.376)" fill-rule="evenodd"/>
<path id="Path_8692" data-name="Path 8692" d="M17.248,1.333h-4A.666.666,0,0,0,12.583,2V3.332A.666.666,0,0,0,13.249,4h4a.666.666,0,0,0,.666-.666V2A.666.666,0,0,0,17.248,1.333ZM13.249,0a2,2,0,0,0-2,2V3.332a2,2,0,0,0,2,2h4a2,2,0,0,0,2-2V2a2,2,0,0,0-2-2Zm5.8,9.524a.666.666,0,0,1,0,.944l-4,4a.666.666,0,0,1-.944,0l-2-2a.667.667,0,1,1,.944-.944l1.528,1.529,3.527-3.528a.666.666,0,0,1,.944,0Z" transform="translate(-5.919)" fill-rule="evenodd"/>
</svg>