<svg height="329.068" viewBox="0 0 337.118 329.068" width="337.118" xmlns="http://www.w3.org/2000/svg">
  <g data-name="Group 3811" id="Group_3811" transform="translate(-0.001 -0.004)">
    <path d="M508.967,221.441H418.128a7.818,7.818,0,0,0-7.808,7.808v201.89l-1.041.318L387,438.281a4.168,4.168,0,0,1-5.2-2.764L315.51,219a4.166,4.166,0,0,1,2.764-5.2l34.34-10.515,99.553-30.472,34.34-10.515a4.159,4.159,0,0,1,5.2,2.759L508.65,220.4Z" data-name="Path 1668"
          fill="#f2f2f2"
          id="Path_1668" transform="translate(-294.95 -147.432)"/>
    <path d="M510.021,206.88l-20.421-66.7a8.846,8.846,0,0,0-11.051-5.872l-48.28,14.778-99.547,30.477-48.28,14.783a8.857,8.857,0,0,0-5.872,11.051l69.794,227.959a8.863,8.863,0,0,0,8.464,6.262,8.739,8.739,0,0,0,2.587-.39l33.1-10.13,1.041-.323v-1.088l-1.041.318-33.4,10.229a7.816,7.816,0,0,1-9.75-5.179L277.571,205.09a7.8,7.8,0,0,1,5.179-9.75l48.28-14.783,99.548-30.472,48.28-14.783a7.8,7.8,0,0,1,9.75,5.179l20.327,66.4.323,1.041h1.083Z" data-name="Path 1669"
          fill="#3f3d56"
          id="Path_1669" transform="translate(-276.182 -133.913)"/>
    <path d="M388.368,207.105a4.693,4.693,0,0,1-4.483-3.314l-6.7-21.9a4.684,4.684,0,0,1,3.108-5.851L471.872,148a4.689,4.689,0,0,1,5.851,3.108l6.7,21.9a4.69,4.69,0,0,1-3.108,5.851L389.737,206.9a4.672,4.672,0,0,1-1.369.206Z" data-name="Path 1670"
          fill="#0a2240"
          id="Path_1670" transform="translate(-324.507 -140.568)"/>
    <circle cx="10.411" cy="10.411" data-name="Ellipse 2" fill="#0a2240" id="Ellipse_2" r="10.411"
            transform="translate(88.572 2.581)"/>
    <circle cx="6.592" cy="6.592" data-name="Ellipse 3" fill="#fff" id="Ellipse_3" r="6.592"
            transform="translate(92.39 6.399)"/>
    <path d="M712.684,513.754H536.743a4.43,4.43,0,0,1-4.425-4.425V298.511a4.43,4.43,0,0,1,4.425-4.425H712.684a4.43,4.43,0,0,1,4.425,4.425V509.329A4.43,4.43,0,0,1,712.684,513.754Z" data-name="Path 1671"
          fill="#e6e6e6"
          id="Path_1671" transform="translate(-398.989 -210.709)"/>
    <path d="M614.24,274.087H504.667a8.862,8.862,0,0,0-8.849,8.849V495.211l1.041-.318V282.936a7.817,7.817,0,0,1,7.808-7.808h109.9Zm95.519,0H504.667a8.862,8.862,0,0,0-8.849,8.849V521.342a8.862,8.862,0,0,0,8.849,8.849H709.759a8.862,8.862,0,0,0,8.849-8.849V282.936A8.862,8.862,0,0,0,709.759,274.087Zm7.808,247.255a7.817,7.817,0,0,1-7.808,7.808H504.667a7.818,7.818,0,0,1-7.808-7.808V282.936a7.817,7.817,0,0,1,7.808-7.808H709.759a7.818,7.818,0,0,1,7.808,7.808Z" data-name="Path 1672"
          fill="#3f3d56"
          id="Path_1672" transform="translate(-381.489 -201.12)"/>
    <path d="M709.282,288.36H613.5a4.69,4.69,0,0,1-4.685-4.685v-22.9a4.69,4.69,0,0,1,4.685-4.685h95.779a4.69,4.69,0,0,1,4.685,4.685v22.9A4.69,4.69,0,0,1,709.282,288.36Z" data-name="Path 1673"
          fill="#0a2240"
          id="Path_1673" transform="translate(-435.668 -192.489)"/>
    <circle cx="10.411" cy="10.411" data-name="Ellipse 4" fill="#0a2240" id="Ellipse_4"
            r="10.411" transform="translate(215.314 44.338)"/>
    <circle cx="6.341" cy="6.341" data-name="Ellipse 5" fill="#fff" id="Ellipse_5" r="6.341"
            transform="translate(219.383 48.407)"/>
    <path d="M718.485,542.1h-81.07a4.406,4.406,0,1,1,0-8.812h81.07a4.406,4.406,0,0,1,0,8.812Z" data-name="Path 1699"
          fill="#ccc"
          id="Path_1699" transform="translate(-455.257 -410.835)"/>
    <path d="M718.485,568.537h-81.07a4.406,4.406,0,1,1,0-8.812h81.07a4.406,4.406,0,0,1,0,8.812Z" data-name="Path 1701"
          fill="#ccc"
          id="Path_1701" transform="translate(-455.257 -410.835)"/>
    <path d="M718.485,594.973h-81.07a4.406,4.406,0,1,1,0-8.812h81.07a4.406,4.406,0,0,1,0,8.812Z" data-name="Path 1703"
          fill="#ccc"
          id="Path_1703" transform="translate(-455.257 -410.835)"/>
    <path d="M718.485,542.1h-81.07a4.406,4.406,0,1,1,0-8.812h81.07a4.406,4.406,0,0,1,0,8.812Z" data-name="Path 1710"
          fill="#ccc"
          id="Path_1710" transform="translate(-455.257 -331.527)"/>
    <path d="M718.485,568.537h-81.07a4.406,4.406,0,1,1,0-8.812h81.07a4.406,4.406,0,0,1,0,8.812Z" data-name="Path 1711"
          fill="#ccc"
          id="Path_1711" transform="translate(-455.257 -331.527)"/>
    <path d="M718.485,594.973h-81.07a4.406,4.406,0,1,1,0-8.812h81.07a4.406,4.406,0,0,1,0,8.812Z" data-name="Path 1712"
          fill="#ccc"
          id="Path_1712" transform="translate(-455.257 -331.527)"/>
  </g>
</svg>
