<svg xmlns="http://www.w3.org/2000/svg" width="19.448" height="17.017" viewBox="0 0 19.448 17.017">
<defs><style>.cls-1</style></defs>
  <path id="Path_8629" data-name="Path 8629" d="M10.939.75H4.862A2.431,2.431,0,0,0,2.431,3.181v7.293H3.646V3.181A1.215,1.215,0,0,1,4.862,1.965h6.077V5a1.823,1.823,0,0,0,1.823,1.823H15.8v3.646h1.215V6.827Zm6.077,13.37H15.8v1.215a1.215,1.215,0,0,1-1.215,1.215H4.862a1.215,1.215,0,0,1-1.215-1.215V14.12H2.431v1.215a2.431,2.431,0,0,0,2.431,2.431h9.724a2.431,2.431,0,0,0,2.431-2.431ZM0,12.3a.608.608,0,0,1,.608-.608H18.84a.608.608,0,0,1,0,1.215H.608A.608.608,0,0,1,0,12.3Z" transform="translate(0 -0.75)"/>
</svg>
