<svg xmlns="http://www.w3.org/2000/svg" viewBox="0 0 15.22 17.9"><defs><style>.cls-1</style></defs><g id="Layer_2" data-name="Layer 2"><g id="Layer_1-2" data-name="Layer 1"><path class="cls-1" d="M13.88,3.58h-.45V3.13a1.34,1.34,0,0,0-1.34-1.34h-.45V1.34A1.34,1.34,0,0,0,10.29,0H3.58a.48.48,0,0,0-.32.13L.13,3.26A.48.48,0,0,0,0,3.58V13a1.34,1.34,0,0,0,1.34,1.34h.45v.45a1.34,1.34,0,0,0,1.34,1.34h.45v.45A1.34,1.34,0,0,0,4.92,17.9h9a1.34,1.34,0,0,0,1.34-1.34V4.92A1.34,1.34,0,0,0,13.88,3.58ZM3.58,1.08V3.13a.45.45,0,0,1-.45.45h-2ZM.9,13V4.48H3.13A1.36,1.36,0,0,0,4.48,3.13V.9h5.81a.45.45,0,0,1,.45.44V13a.45.45,0,0,1-.45.45H1.34A.45.45,0,0,1,.9,13Zm1.79,1.79v-.45h7.6A1.34,1.34,0,0,0,11.64,13V2.69h.45a.44.44,0,0,1,.44.44V14.77a.45.45,0,0,1-.44.45h-9A.45.45,0,0,1,2.69,14.77Zm11.63,1.79a.45.45,0,0,1-.44.45h-9a.45.45,0,0,1-.44-.45v-.45h7.61a1.34,1.34,0,0,0,1.34-1.34V4.48h.45a.44.44,0,0,1,.44.44Z"/></g></g></svg>