<svg xmlns="http://www.w3.org/2000/svg" width="19.979" height="20.893" viewBox="0 0 19.979 20.893">
<g id="file-earmark-check" transform="translate(-4.5 -2.25)">
<path id="Path_8681" data-name="Path 8681" d="M13.719,2.25H7.134A2.777,2.777,0,0,0,4.5,5.151v14.5a2.777,2.777,0,0,0,2.634,2.9h6.585V21.1H7.134a1.388,1.388,0,0,1-1.317-1.45V5.151A1.388,1.388,0,0,1,7.134,3.7h6.585V7.326A2.083,2.083,0,0,0,15.694,9.5h3.292v2.9H20.3V9.5Z" transform="translate(0)"/>
<g id="Group_24429" data-name="Group 24429" transform="translate(13.502 11.683)">
<path id="Path_8686" data-name="Path 8686" d="M13.018,11.48a.789.789,0,0,0,0,1.117l7.889,7.889a.789.789,0,1,0,1.116-1.117L14.134,11.48a.789.789,0,0,0-1.117,0Z" transform="translate(-11.485 -9.465)" fill-rule="evenodd"/>
<path id="Path_8687" data-name="Path 8687" d="M22.428,11.491a.824.824,0,0,1,0,1.166l-8.235,8.235a.825.825,0,1,1-1.166-1.166l8.235-8.235a.824.824,0,0,1,1.165,0Z" transform="translate(-11.693 -9.674)" fill-rule="evenodd"/>
</g>
</g>
</svg>