<svg id="clipboard-check" xmlns="http://www.w3.org/2000/svg" width="18.66" height="21.326" viewBox="0 0 18.66 21.326">
<path id="Path_8691" data-name="Path 8691" d="M6.249,3.375H4.916A2.666,2.666,0,0,0,2.25,6.041v14A2.666,2.666,0,0,0,4.916,22.7H18.244a2.666,2.666,0,0,0,2.666-2.666v-14a2.666,2.666,0,0,0-2.666-2.666H16.912V4.708h1.333a1.333,1.333,0,0,1,1.333,1.333v14a1.333,1.333,0,0,1-1.333,1.333H4.916a1.333,1.333,0,0,1-1.333-1.333v-14A1.333,1.333,0,0,1,4.916,4.708H6.249Z" transform="translate(-2.25 -1.376)" fill-rule="evenodd"/>
<path id="Path_8692" data-name="Path 8692" d="M17.248,1.333h-4A.666.666,0,0,0,12.583,2V3.332A.666.666,0,0,0,13.249,4h4a.666.666,0,0,0,.666-.666V2A.666.666,0,0,0,17.248,1.333ZM13.249,0a2,2,0,0,0-2,2V3.332a2,2,0,0,0,2,2h4a2,2,0,0,0,2-2V2a2,2,0,0,0-2-2Z" transform="translate(-5.919)" fill-rule="evenodd"/>
<g id="Group_24440" data-name="Group 24440" transform="translate(6.994 9.254)">
<path id="Path_8686" data-name="Path 8686" d="M12.924,11.386a.467.467,0,0,0,0,.662L17.6,16.721a.468.468,0,0,0,.661-.662l-4.673-4.673a.467.467,0,0,0-.662,0Z" transform="translate(-12.663 -11.125)" fill-rule="evenodd"/>
<path id="Path_8687" data-name="Path 8687" d="M18.5,11.392a.488.488,0,0,1,0,.691l-4.879,4.879a.488.488,0,1,1-.691-.691l4.879-4.879a.488.488,0,0,1,.69,0Z" transform="translate(-12.785 -11.249)" fill-rule="evenodd"/>
</g>
</svg>