<svg width="220" height="221" viewBox="0 0 220 221" fill="none" xmlns="http://www.w3.org/2000/svg">
<path d="M163.72 140.96L219.079 196.319L195.321 220.077L139.962 164.718C125.61 174.488 108.271 180.198 89.603 180.198C40.119 180.198 0.00100708 140.085 0.00100708 90.6001C0.00100708 41.1161 40.118 0.998047 89.603 0.998047C139.087 0.998047 179.201 41.1151 179.201 90.6001C179.201 109.268 173.49 126.608 163.721 140.959L163.72 140.96ZM89.603 146.601C120.529 146.601 145.603 121.527 145.603 90.6006C145.603 59.6706 120.529 34.6006 89.603 34.6006C58.673 34.6006 33.603 59.6706 33.603 90.6006C33.603 121.527 58.673 146.601 89.603 146.601Z" fill="#b1b1b1"/>
</svg>
