<svg xmlns="http://www.w3.org/2000/svg" width="15.578" height="14.496" viewBox="0 0 15.578 14.496">
  <g id="check2-square" transform="translate(-4.457 -4.457)">
    <path id="Path_8652" data-name="Path 8652" d="M21.5,5.777a.524.524,0,0,1,0,.742l-7.339,7.339a.524.524,0,0,1-.742,0l-3.145-3.145a.525.525,0,0,1,.742-.742l2.774,2.775,6.968-6.969a.524.524,0,0,1,.742,0Z" transform="translate(-1.622 -0.034)"/>
    <path id="Path_8653" data-name="Path 8653" d="M3.375,16.2a1.673,1.673,0,0,0,1.673,1.673H16.2A1.673,1.673,0,0,0,17.871,16.2V10.623a.558.558,0,1,0-1.115,0V16.2a.558.558,0,0,1-.558.558H5.048A.558.558,0,0,1,4.49,16.2V5.048a.558.558,0,0,1,.558-.558h8.92a.558.558,0,1,0,0-1.115H5.048A1.673,1.673,0,0,0,3.375,5.048Z" transform="translate(1.082 1.082)"/>
  </g>
</svg>
