<svg xmlns="http://www.w3.org/2000/svg" width="18" height="13.501" viewBox="0 0 18 13.501">
<defs><style>.cls-1</style></defs>
  <path id="Path_1139" data-name="Path 1139" d="M9785.6,2008.394l-2.428-5.551a1.954,1.954,0,0,0-1.673-1.094h-9a1.954,1.954,0,0,0-1.673,1.094l-2.428,5.551a5.556,5.556,0,0,0-.4,1.906v3.6a1.352,1.352,0,0,0,1.35,1.35h15.3a1.352,1.352,0,0,0,1.35-1.35v-3.6A5.561,5.561,0,0,0,9785.6,2008.394Zm-13.949-5.189a1.051,1.051,0,0,1,.849-.555h9a1.051,1.051,0,0,1,.849.555l2.429,5.552c.026.061.054.132.08.209a1.305,1.305,0,0,0-.207-.016h-5.4a.45.45,0,0,0-.45.45v.45a1.8,1.8,0,1,1-3.6,0v-.45a.45.45,0,0,0-.45-.45h-5.4a1.305,1.305,0,0,0-.207.016c.026-.077.053-.148.08-.209Zm13.448,10.7a.449.449,0,0,1-.449.45h-15.3a.449.449,0,0,1-.449-.45v-3.6a.449.449,0,0,1,.449-.45h4.95a2.7,2.7,0,0,0,5.4,0h4.95a.449.449,0,0,1,.449.45Z" transform="translate(-9768 -2001.749)" />
</svg>
